<mxfile host="app.diagrams.net" modified="2021-06-28T18:40:50.794Z" agent="5.0 (Windows NT 10.0; Win64; x64) AppleWebKit/537.36 (KHTML, like Gecko) Chrome/91.0.4472.124 Safari/537.36" etag="NCjJd07ioJxbCzla3kAn" version="14.8.1" type="github">
  <diagram id="JS8aMH_mK2cZ-2c36uuN" name="Page-1">
    <mxGraphModel dx="1718" dy="450" grid="1" gridSize="10" guides="1" tooltips="1" connect="1" arrows="1" fold="1" page="1" pageScale="1" pageWidth="850" pageHeight="1100" math="0" shadow="0">
      <root>
        <mxCell id="0" />
        <mxCell id="1" parent="0" />
        <mxCell id="j0ju8uMQ2UB-qor5FmlF-4" style="edgeStyle=orthogonalEdgeStyle;rounded=0;orthogonalLoop=1;jettySize=auto;html=1;exitX=1;exitY=0.5;exitDx=0;exitDy=0;" parent="1" source="j0ju8uMQ2UB-qor5FmlF-1" target="j0ju8uMQ2UB-qor5FmlF-3" edge="1">
          <mxGeometry relative="1" as="geometry" />
        </mxCell>
        <mxCell id="rif6yRt2SpfoZcCBtPzw-4" style="edgeStyle=orthogonalEdgeStyle;rounded=0;orthogonalLoop=1;jettySize=auto;html=1;entryX=1;entryY=0.175;entryDx=0;entryDy=0;entryPerimeter=0;" edge="1" parent="1" source="j0ju8uMQ2UB-qor5FmlF-1" target="rif6yRt2SpfoZcCBtPzw-1">
          <mxGeometry relative="1" as="geometry" />
        </mxCell>
        <mxCell id="rif6yRt2SpfoZcCBtPzw-5" value="inputs" style="edgeLabel;html=1;align=center;verticalAlign=middle;resizable=0;points=[];" vertex="1" connectable="0" parent="rif6yRt2SpfoZcCBtPzw-4">
          <mxGeometry y="1" relative="1" as="geometry">
            <mxPoint as="offset" />
          </mxGeometry>
        </mxCell>
        <mxCell id="j0ju8uMQ2UB-qor5FmlF-1" value="form.jsx" style="ellipse;whiteSpace=wrap;html=1;aspect=fixed;" parent="1" vertex="1">
          <mxGeometry x="10" y="130" width="80" height="80" as="geometry" />
        </mxCell>
        <mxCell id="j0ju8uMQ2UB-qor5FmlF-5" style="edgeStyle=orthogonalEdgeStyle;rounded=0;orthogonalLoop=1;jettySize=auto;html=1;entryX=0;entryY=1;entryDx=0;entryDy=0;" parent="1" source="j0ju8uMQ2UB-qor5FmlF-2" target="j0ju8uMQ2UB-qor5FmlF-3" edge="1">
          <mxGeometry relative="1" as="geometry" />
        </mxCell>
        <mxCell id="j0ju8uMQ2UB-qor5FmlF-8" style="edgeStyle=orthogonalEdgeStyle;rounded=0;orthogonalLoop=1;jettySize=auto;html=1;" parent="1" source="j0ju8uMQ2UB-qor5FmlF-2" target="j0ju8uMQ2UB-qor5FmlF-6" edge="1">
          <mxGeometry relative="1" as="geometry">
            <Array as="points">
              <mxPoint x="150" y="300" />
            </Array>
          </mxGeometry>
        </mxCell>
        <mxCell id="j0ju8uMQ2UB-qor5FmlF-11" value="condition" style="edgeLabel;html=1;align=center;verticalAlign=middle;resizable=0;points=[];" parent="j0ju8uMQ2UB-qor5FmlF-8" vertex="1" connectable="0">
          <mxGeometry x="0.2743" y="2" relative="1" as="geometry">
            <mxPoint as="offset" />
          </mxGeometry>
        </mxCell>
        <mxCell id="j0ju8uMQ2UB-qor5FmlF-2" value="list.jsx" style="ellipse;whiteSpace=wrap;html=1;aspect=fixed;" parent="1" vertex="1">
          <mxGeometry x="10" y="250" width="80" height="80" as="geometry" />
        </mxCell>
        <mxCell id="j0ju8uMQ2UB-qor5FmlF-14" style="edgeStyle=orthogonalEdgeStyle;rounded=0;orthogonalLoop=1;jettySize=auto;html=1;" parent="1" source="j0ju8uMQ2UB-qor5FmlF-3" target="j0ju8uMQ2UB-qor5FmlF-13" edge="1">
          <mxGeometry relative="1" as="geometry" />
        </mxCell>
        <mxCell id="rif6yRt2SpfoZcCBtPzw-8" style="edgeStyle=orthogonalEdgeStyle;rounded=0;orthogonalLoop=1;jettySize=auto;html=1;entryX=0;entryY=0.75;entryDx=0;entryDy=0;" edge="1" parent="1" source="j0ju8uMQ2UB-qor5FmlF-3" target="rif6yRt2SpfoZcCBtPzw-7">
          <mxGeometry relative="1" as="geometry">
            <Array as="points">
              <mxPoint x="210" y="380" />
            </Array>
          </mxGeometry>
        </mxCell>
        <mxCell id="rif6yRt2SpfoZcCBtPzw-10" value="url,method and body" style="edgeLabel;html=1;align=center;verticalAlign=middle;resizable=0;points=[];" vertex="1" connectable="0" parent="rif6yRt2SpfoZcCBtPzw-8">
          <mxGeometry x="-0.5502" y="2" relative="1" as="geometry">
            <mxPoint as="offset" />
          </mxGeometry>
        </mxCell>
        <mxCell id="j0ju8uMQ2UB-qor5FmlF-3" value="todo-connected.jsx" style="ellipse;whiteSpace=wrap;html=1;aspect=fixed;" parent="1" vertex="1">
          <mxGeometry x="160" y="180" width="80" height="80" as="geometry" />
        </mxCell>
        <mxCell id="j0ju8uMQ2UB-qor5FmlF-9" style="edgeStyle=orthogonalEdgeStyle;rounded=0;orthogonalLoop=1;jettySize=auto;html=1;entryX=0;entryY=1;entryDx=0;entryDy=0;" parent="1" source="j0ju8uMQ2UB-qor5FmlF-6" target="j0ju8uMQ2UB-qor5FmlF-2" edge="1">
          <mxGeometry relative="1" as="geometry">
            <Array as="points">
              <mxPoint x="22" y="440" />
            </Array>
          </mxGeometry>
        </mxCell>
        <mxCell id="j0ju8uMQ2UB-qor5FmlF-12" value="children" style="edgeLabel;html=1;align=center;verticalAlign=middle;resizable=0;points=[];" parent="j0ju8uMQ2UB-qor5FmlF-9" vertex="1" connectable="0">
          <mxGeometry x="0.3026" y="1" relative="1" as="geometry">
            <mxPoint as="offset" />
          </mxGeometry>
        </mxCell>
        <mxCell id="j0ju8uMQ2UB-qor5FmlF-6" value="if.jsx" style="rhombus;whiteSpace=wrap;html=1;" parent="1" vertex="1">
          <mxGeometry x="110" y="400" width="80" height="80" as="geometry" />
        </mxCell>
        <mxCell id="j0ju8uMQ2UB-qor5FmlF-15" style="edgeStyle=orthogonalEdgeStyle;rounded=0;orthogonalLoop=1;jettySize=auto;html=1;" parent="1" source="j0ju8uMQ2UB-qor5FmlF-13" edge="1">
          <mxGeometry relative="1" as="geometry">
            <mxPoint x="500" y="220" as="targetPoint" />
          </mxGeometry>
        </mxCell>
        <mxCell id="j0ju8uMQ2UB-qor5FmlF-13" value="app.js" style="ellipse;whiteSpace=wrap;html=1;aspect=fixed;" parent="1" vertex="1">
          <mxGeometry x="330" y="180" width="80" height="80" as="geometry" />
        </mxCell>
        <mxCell id="j0ju8uMQ2UB-qor5FmlF-18" value="" style="edgeStyle=orthogonalEdgeStyle;rounded=0;orthogonalLoop=1;jettySize=auto;html=1;" parent="1" source="j0ju8uMQ2UB-qor5FmlF-16" target="j0ju8uMQ2UB-qor5FmlF-17" edge="1">
          <mxGeometry relative="1" as="geometry" />
        </mxCell>
        <mxCell id="j0ju8uMQ2UB-qor5FmlF-16" value="index.js" style="ellipse;whiteSpace=wrap;html=1;aspect=fixed;" parent="1" vertex="1">
          <mxGeometry x="500" y="180" width="80" height="80" as="geometry" />
        </mxCell>
        <mxCell id="j0ju8uMQ2UB-qor5FmlF-19" style="edgeStyle=orthogonalEdgeStyle;rounded=0;orthogonalLoop=1;jettySize=auto;html=1;entryX=0.625;entryY=0;entryDx=0;entryDy=0;entryPerimeter=0;" parent="1" source="j0ju8uMQ2UB-qor5FmlF-17" target="j0ju8uMQ2UB-qor5FmlF-1" edge="1">
          <mxGeometry relative="1" as="geometry">
            <Array as="points">
              <mxPoint x="700" y="130" />
              <mxPoint x="60" y="130" />
            </Array>
          </mxGeometry>
        </mxCell>
        <mxCell id="j0ju8uMQ2UB-qor5FmlF-20" value="form data" style="edgeLabel;html=1;align=center;verticalAlign=middle;resizable=0;points=[];" parent="j0ju8uMQ2UB-qor5FmlF-19" vertex="1" connectable="0">
          <mxGeometry x="-0.1861" y="1" relative="1" as="geometry">
            <mxPoint as="offset" />
          </mxGeometry>
        </mxCell>
        <mxCell id="j0ju8uMQ2UB-qor5FmlF-17" value="UI" style="whiteSpace=wrap;html=1;" parent="1" vertex="1">
          <mxGeometry x="640" y="190" width="120" height="60" as="geometry" />
        </mxCell>
        <mxCell id="rif6yRt2SpfoZcCBtPzw-2" style="edgeStyle=orthogonalEdgeStyle;rounded=0;orthogonalLoop=1;jettySize=auto;html=1;" edge="1" parent="1" source="rif6yRt2SpfoZcCBtPzw-1">
          <mxGeometry relative="1" as="geometry">
            <mxPoint x="20" y="190" as="targetPoint" />
            <Array as="points">
              <mxPoint x="-30" y="190" />
            </Array>
          </mxGeometry>
        </mxCell>
        <mxCell id="rif6yRt2SpfoZcCBtPzw-6" value="results" style="edgeLabel;html=1;align=center;verticalAlign=middle;resizable=0;points=[];" vertex="1" connectable="0" parent="rif6yRt2SpfoZcCBtPzw-2">
          <mxGeometry x="-0.6333" y="-1" relative="1" as="geometry">
            <mxPoint as="offset" />
          </mxGeometry>
        </mxCell>
        <mxCell id="rif6yRt2SpfoZcCBtPzw-1" value="useform.jsx" style="whiteSpace=wrap;html=1;aspect=fixed;" vertex="1" parent="1">
          <mxGeometry x="-70" y="30" width="80" height="80" as="geometry" />
        </mxCell>
        <mxCell id="rif6yRt2SpfoZcCBtPzw-9" style="edgeStyle=orthogonalEdgeStyle;rounded=0;orthogonalLoop=1;jettySize=auto;html=1;entryX=0.988;entryY=0.725;entryDx=0;entryDy=0;entryPerimeter=0;" edge="1" parent="1" source="rif6yRt2SpfoZcCBtPzw-7" target="j0ju8uMQ2UB-qor5FmlF-3">
          <mxGeometry relative="1" as="geometry">
            <Array as="points">
              <mxPoint x="290" y="238" />
            </Array>
          </mxGeometry>
        </mxCell>
        <mxCell id="rif6yRt2SpfoZcCBtPzw-11" value="results" style="edgeLabel;html=1;align=center;verticalAlign=middle;resizable=0;points=[];" vertex="1" connectable="0" parent="rif6yRt2SpfoZcCBtPzw-9">
          <mxGeometry x="-0.0674" y="-1" relative="1" as="geometry">
            <mxPoint as="offset" />
          </mxGeometry>
        </mxCell>
        <mxCell id="rif6yRt2SpfoZcCBtPzw-7" value="useajax.jsx" style="whiteSpace=wrap;html=1;aspect=fixed;" vertex="1" parent="1">
          <mxGeometry x="250" y="320" width="80" height="80" as="geometry" />
        </mxCell>
      </root>
    </mxGraphModel>
  </diagram>
</mxfile>
